<svg width="200" height="40" viewBox="0 0 200 40" fill="none" xmlns="http://www.w3.org/2000/svg">
<g id="Group">
<path id="Vector" d="M191.536 5.01727C191.536 2.85689 193.29 1.07776 195.476 1.07776C197.636 1.07776 199.415 2.83148 199.415 5.01727C199.415 7.17765 197.662 8.95678 195.476 8.95678C193.29 8.93136 191.536 7.17765 191.536 5.01727ZM190.901 5.01727C190.901 7.53347 192.934 9.56677 195.451 9.56677C197.967 9.56677 200 7.53347 200 5.01727C200 2.50107 197.967 0.467773 195.451 0.467773C192.934 0.467773 190.901 2.47565 190.901 4.99186V5.01727ZM196.721 5.52559V5.39851C197.408 5.27143 197.89 4.68686 197.865 4.00062C197.89 3.16189 197.23 2.50107 196.391 2.47565C196.34 2.47565 196.264 2.47565 196.213 2.47565H193.697L193.57 2.60273V7.43181L193.697 7.55889H194.205L194.332 7.43181V5.65267L194.459 5.52559H195.73L195.984 5.65267L197.255 7.43181L197.509 7.55889H197.636L197.763 7.43181V6.92348L196.721 5.52559ZM197.103 4.00062C197.128 4.4327 196.798 4.83936 196.365 4.86478C196.315 4.86478 196.289 4.86478 196.238 4.86478H194.51L194.383 4.73769V3.23814L194.51 3.11106H196.238C196.67 3.06022 197.052 3.39063 197.103 3.82271C197.103 3.89896 197.103 3.94979 197.103 4.00062Z" fill="#F80102"/>
<path id="Vector_2" d="M26.1024 2.47583L26.6108 3.00957L33.3969 27.0025H33.9306L39.1409 3.00957L39.6493 2.47583H44.8596L45.3933 3.00957V8.21989L37.5651 38.4906L37.0568 38.9989H30.2707L29.7369 38.4906L22.9508 13.4556H22.4425L15.6564 38.4906L15.1226 38.9989H8.33651L7.82819 38.4906L0 8.21989V3.00957L0.508324 2.47583H5.74406L6.25238 3.00957L11.4881 27.0025H11.9964L18.7826 3.00957L19.3163 2.47583H26.1024Z" fill="#F80102"/>
<path id="Vector_3" d="M71.4958 28.0443L70.9874 28.5781H54.8227L54.3144 29.0864C54.3144 30.1284 55.3565 33.2546 59.4993 33.2546C61.0751 33.2546 62.6255 32.7463 63.1593 31.7042L63.693 31.1705H69.8945L70.4283 31.7042C69.8945 34.8304 67.3021 39.4816 59.4739 39.4816C50.6291 39.5324 46.4608 33.2292 46.4608 25.9602C46.4608 18.6912 50.6291 12.3879 58.991 12.3879C67.3529 12.3879 71.4958 18.6403 71.4958 25.9602V28.0443ZM63.693 22.8594C63.388 20.267 61.0243 18.4116 58.4318 18.742C56.2715 18.9961 54.5686 20.699 54.3144 22.8594L54.8227 23.3677H63.1593L63.693 22.8594Z" fill="#F80102"/>
<path id="Vector_4" d="M82.9584 38.9989H76.706L76.1723 38.4906V3.00957L76.706 2.47583H82.9584L83.4922 3.00957V38.4906L82.9584 38.9989Z" fill="#F80102"/>
<path id="Vector_5" d="M99.6315 12.4133C104.333 12.4133 106.418 15.0057 106.418 15.0057H106.926V3.0093L107.46 2.50098H113.712L114.246 3.0093V38.4649L113.712 38.9732H107.968L107.46 38.4649L106.926 36.8891H106.418C106.418 36.8891 104.333 39.4815 99.6315 39.4815C93.3791 39.4815 88.1433 34.2966 88.1433 25.9093C88.1433 17.5219 93.3282 12.337 99.6315 12.337M101.233 33.2291C105.401 33.2291 106.977 30.103 106.977 25.9347C106.977 21.7664 105.401 18.6403 101.233 18.6403C97.0644 18.6403 95.4886 21.7664 95.4886 25.9347C95.4886 30.103 97.039 33.2291 101.233 33.2291Z" fill="#F80102"/>
<path id="Vector_6" d="M127.31 38.9989H121.057L120.524 38.4906V3.00957L121.057 2.47583H127.31L127.843 3.00957V38.4906L127.31 38.9989Z" fill="#F80102"/>
<path id="Vector_7" d="M145.584 39.5324C137.756 39.5324 132.545 34.3475 132.545 25.9602C132.545 17.5728 137.73 12.3879 145.584 12.3879C153.438 12.3879 158.622 17.6491 158.622 25.9602C158.622 34.2713 153.438 39.5324 145.584 39.5324ZM145.584 18.6657C141.924 18.6657 139.84 21.2582 139.84 25.9602C139.84 30.6622 141.924 33.2292 145.584 33.2292C149.244 33.2292 151.328 30.6368 151.328 25.9348C151.328 21.2328 149.244 18.6403 145.584 18.6403" fill="#F80102"/>
<path id="Vector_8" d="M186.275 38.9989H183.149L182.107 38.4906L174.813 30.6624H174.279L171.153 33.7886L170.619 34.8306V38.4906L170.111 38.9989H163.858L163.324 38.4906V3.00957L163.858 2.47583H170.111L170.619 3.00957V23.8763H171.153L181.573 13.4556L182.641 12.9219H185.767L186.275 13.4556V18.6659L180.023 24.9183V25.4521L186.809 33.2803V38.4906L186.275 38.9989Z" fill="#F80102"/>
</g>
</svg>
